<?xml version="1.0" standalone="no"?>
<!DOCTYPE svg PUBLIC "-//W3C//DTD SVG 20010904//EN"
 "http://www.w3.org/TR/2001/REC-SVG-20010904/DTD/svg10.dtd">
<svg version="1.0" xmlns="http://www.w3.org/2000/svg"
 preserveAspectRatio="xMidYMid meet" fill-rule="evenodd" viewBox="0 0 504 140" clip-\
rule="evenodd">
<metadata>
Created by potrace 1.16, written by Peter Selinger 2001-2019
</metadata>
<g transform="translate(0.000000,140) scale(0.0130000,-0.0130000)"
fill="#000000" stroke="none">
<path d="M4816 10535 c-654 -62 -1246 -226 -1822 -504 -910 -441 -1664 -1124
-2201 -1995 -115 -185 -313 -580 -392 -781 -165 -417 -245 -722 -337 -1292 -4
-28 -1 -33 18 -38 13 -2 205 -39 428 -80 223 -42 413 -78 422 -81 17 -5 18
-29 18 -329 l0 -323 73 -30 c39 -17 99 -41 132 -54 l60 -24 3 -256 2 -255 73
-31 c311 -130 2584 -1055 2592 -1055 12 0 2287 1350 2295 1362 4 6 1225 -216
1239 -225 2 -2 -40 -235 -93 -518 -53 -283 -96 -524 -96 -534 0 -17 17 -23
133 -45 72 -14 133 -24 134 -23 6 5 1183 5858 1183 5881 -1 14 -227 192 -380
299 -740 519 -1548 819 -2495 927 -159 18 -812 20 -989 4z m299 -1750 c721
-295 1313 -540 1318 -544 7 -7 -2507 -1489 -2543 -1498 -9 -3 -630 246 -1379
553 l-1361 558 47 27 c27 15 603 354 1282 753 l1235 724 45 -18 c25 -10 636
-259 1356 -555z m-2660 -1653 l1340 -548 3 -1252 c1 -689 0 -1252 -2 -1252 -3
0 -611 248 -1353 551 -741 303 -1354 553 -1360 556 -10 4 -13 264 -13 1255 l0
1250 23 -6 c12 -3 625 -252 1362 -554z m3653 -2337 c-15 -14 -2155 -1285
-2163 -1285 -3 0 -5 110 -5 244 l0 243 1088 646 1087 646 3 -241 c2 -186 -1
-245 -10 -253z"/>
<path d="M8637 6064 c-302 -1511 -547 -2748 -545 -2750 4 -3 532 -102 535
-100 2 1 506 2411 862 4121 l179 860 -21 37 c-51 92 -423 565 -452 575 -6 2
-229 -1094 -558 -2743z"/>
<path d="M10085 7378 c-4 -18 -206 -985 -449 -2148 -388 -1850 -441 -2116
-427 -2122 33 -15 785 -148 792 -141 4 4 33 64 64 133 223 488 370 1005 435
1530 30 242 40 404 40 665 0 683 -121 1319 -369 1947 -35 87 -66 160 -71 163
-5 3 -12 -9 -15 -27z"/>
<path d="M510 3084 c0 -19 208 -408 283 -530 532 -867 1291 -1554 2201 -1995
726 -350 1466 -519 2282 -519 436 0 757 34 1154 121 147 32 421 107 432 118 6
5 518 2545 518 2570 0 5 -57 20 -127 33 -115 22 -129 23 -135 9 -4 -9 -55
-270 -112 -580 -58 -310 -107 -565 -109 -568 -3 -2 -704 144 -1558 326 -855
181 -2286 485 -3180 675 -895 191 -1632 346 -1638 346 -6 0 -11 -3 -11 -6z"/>
<path d="M7756 1658 c-119 -596 -216 -1091 -216 -1101 0 -16 26 -5 148 58 194
101 451 255 456 275 3 8 53 247 111 530 59 283 140 674 181 869 40 195 73 355
71 356 -5 5 -496 95 -514 95 -18 0 -38 -89 -237 -1082z"/>
<path d="M14030 2613 c-346 -44 -844 -226 -994 -364 -63 -58 -102 -136 -122
-247 -24 -136 -15 -209 32 -253 21 -20 36 -24 82 -23 46 0 85 12 202 61 80 33
175 70 211 82 87 28 319 90 319 85 0 -2 -26 -41 -59 -86 -161 -227 -340 -513
-460 -733 -126 -231 -161 -335 -161 -480 0 -107 24 -170 75 -194 69 -33 306
-22 519 23 439 94 874 337 1122 627 136 160 218 303 270 475 25 80 28 105 28
249 1 138 -2 171 -22 239 -78 271 -268 447 -563 522 -63 16 -397 28 -479 17z
m485 -487 c210 -58 319 -172 332 -347 13 -177 -72 -349 -254 -519 -264 -246
-708 -429 -1053 -433 -135 -1 -166 9 -155 51 17 71 261 495 471 817 205 317
214 333 214 403 l0 54 193 -5 c135 -3 210 -10 252 -21z m-642 -19 c-4 -7 -26
-38 -48 -69 l-40 -56 -200 -4 c-110 -2 -201 -3 -203 -3 -11 7 451 142 491 145
4 0 4 -6 0 -13z"/>
<path d="M9070 2531 c0 -4 -52 -255 -115 -556 -63 -302 -113 -550 -112 -552 8
-7 372 372 467 487 198 239 390 507 368 515 -11 4 -594 115 -604 115 -2 0 -4
-4 -4 -9z"/>
<path d="M10200 1865 c-123 -20 -230 -53 -325 -100 -217 -106 -338 -272 -305
-421 28 -127 117 -180 337 -200 l73 -7 -103 -34 c-314 -105 -497 -280 -497
-476 1 -186 166 -285 433 -257 253 26 499 120 608 231 58 59 85 114 98 199 11
68 15 160 6 160 -3 0 -45 -32 -94 -70 -230 -182 -451 -268 -660 -258 -88 4
-143 23 -155 53 -16 42 44 114 161 192 141 93 302 153 497 183 38 6 81 17 97
25 72 38 113 150 69 190 -20 18 -42 20 -298 27 -266 7 -326 13 -368 36 -17 10
-16 13 22 50 87 82 309 174 472 193 110 14 123 8 80 -33 -41 -39 -133 -167
-125 -174 2 -3 45 21 94 53 48 32 143 85 211 117 142 70 148 78 140 202 -6 84
-20 108 -77 124 -50 14 -300 11 -391 -5z"/>
<path d="M11960 1754 c-19 -2 -78 -9 -130 -15 -118 -14 -303 -60 -377 -95 -71
-34 -124 -87 -163 -163 -36 -72 -40 -129 -10 -156 18 -17 35 -18 193 -12 94 3
180 9 190 12 25 10 22 54 -5 64 -18 7 -19 10 -8 14 22 8 184 36 188 33 1 -2
-55 -79 -126 -172 l-128 -169 -60 -7 c-32 -4 -71 -13 -87 -19 -33 -14 -80 -66
-107 -119 -31 -61 -28 -78 23 -113 17 -12 14 -20 -49 -111 -76 -112 -134 -218
-134 -247 0 -10 9 -28 20 -39 51 -51 153 0 196 96 19 44 71 127 135 216 6 10
430 -191 629 -298 161 -86 189 -95 218 -66 40 40 44 218 6 269 -27 37 -222
134 -453 227 l-181 73 92 7 c211 16 494 78 603 132 59 30 137 102 172 161 30
52 53 133 53 192 0 151 -99 239 -319 281 -97 19 -310 32 -381 24z m381 -298
c92 -17 139 -39 139 -67 0 -70 -209 -158 -542 -228 l-136 -28 75 96 c74 93
123 178 123 213 0 11 10 18 33 21 74 9 237 5 308 -7z"/>
</g>
</svg>
